<mxfile host="app.diagrams.net" agent="Mozilla/5.0 (Windows NT 10.0; Win64; x64) AppleWebKit/537.36 (KHTML, like Gecko) Chrome/124.0.0.0 Safari/537.36 SLBrowser/9.0.5.12181 SLBChan/ SLBVPV/64-bit" version="26.2.13">
  <diagram name="Page-1" id="c7558073-3199-34d8-9f00-42111426c3f3">
    <mxGraphModel dx="952" dy="522" grid="1" gridSize="10" guides="1" tooltips="1" connect="1" arrows="1" fold="1" page="1" pageScale="1" pageWidth="826" pageHeight="1169" background="none" math="0" shadow="0">
      <root>
        <mxCell id="0" />
        <mxCell id="1" parent="0" />
        <mxCell id="ajYVIgqOjoC30KdAL2Ek-134" value="" style="group" vertex="1" connectable="0" parent="1">
          <mxGeometry x="440" y="240" width="200" height="120" as="geometry" />
        </mxCell>
        <mxCell id="ajYVIgqOjoC30KdAL2Ek-96" value="" style="rounded=1;whiteSpace=wrap;html=1;fillColor=light-dark(#F8CECC,#FFD7D4);strokeColor=#b85450;" vertex="1" parent="ajYVIgqOjoC30KdAL2Ek-134">
          <mxGeometry width="200" height="120" as="geometry" />
        </mxCell>
        <mxCell id="ajYVIgqOjoC30KdAL2Ek-97" value="&lt;b&gt;多层感知机&lt;/b&gt;" style="rounded=0;whiteSpace=wrap;html=1;fillColor=#F19C99;strokeColor=#b85450;shadow=0;" vertex="1" parent="ajYVIgqOjoC30KdAL2Ek-134">
          <mxGeometry x="40" y="15" width="120" height="20" as="geometry" />
        </mxCell>
        <mxCell id="ajYVIgqOjoC30KdAL2Ek-98" value="&lt;b&gt;交叉注意力层&lt;span style=&quot;color: rgba(0, 0, 0, 0); font-family: monospace; font-size: 0px; text-align: start; text-wrap: nowrap;&quot;&gt;%3CmxGraphModel%3E%3Croot%3E%3CmxCell%20id%3D%220%22%2F%3E%3CmxCell%20id%3D%221%22%20parent%3D%220%22%2F%3E%3CmxCell%20id%3D%222%22%20value%3D%22%E5%A4%9A%E5%B1%82%E6%84%9F%E7%9F%A5%E6%9C%BA%22%20style%3D%22rounded%3D0%3BwhiteSpace%3Dwrap%3Bhtml%3D1%3B%22%20vertex%3D%221%22%20parent%3D%221%22%3E%3CmxGeometry%20x%3D%22470%22%20y%3D%22248%22%20width%3D%22120%22%20height%3D%2220%22%20as%3D%22geometry%22%2F%3E%3C%2FmxCell%3E%3C%2Froot%3E%3C%2FmxGraphModel%3E&lt;/span&gt;&lt;/b&gt;" style="rounded=0;whiteSpace=wrap;html=1;fillColor=#F19C99;strokeColor=#b85450;" vertex="1" parent="ajYVIgqOjoC30KdAL2Ek-134">
          <mxGeometry x="40" y="50" width="120" height="20" as="geometry" />
        </mxCell>
        <mxCell id="ajYVIgqOjoC30KdAL2Ek-99" value="&lt;b&gt;自注意力层&lt;/b&gt;" style="rounded=0;whiteSpace=wrap;html=1;fillColor=#F19C99;strokeColor=#b85450;" vertex="1" parent="ajYVIgqOjoC30KdAL2Ek-134">
          <mxGeometry x="40" y="84" width="120" height="20" as="geometry" />
        </mxCell>
        <mxCell id="ajYVIgqOjoC30KdAL2Ek-100" value="" style="endArrow=none;html=1;rounded=0;entryX=0.5;entryY=1;entryDx=0;entryDy=0;exitX=0.5;exitY=1;exitDx=0;exitDy=0;fillColor=#EA6B66;strokeColor=#D3A9A9;" edge="1" parent="ajYVIgqOjoC30KdAL2Ek-134" source="ajYVIgqOjoC30KdAL2Ek-99" target="ajYVIgqOjoC30KdAL2Ek-96">
          <mxGeometry width="50" height="50" relative="1" as="geometry">
            <mxPoint x="-40" y="190" as="sourcePoint" />
            <mxPoint x="10" y="140" as="targetPoint" />
          </mxGeometry>
        </mxCell>
        <mxCell id="ajYVIgqOjoC30KdAL2Ek-101" value="" style="endArrow=none;html=1;rounded=0;fillColor=#f8cecc;strokeColor=#D3A9A9;" edge="1" parent="ajYVIgqOjoC30KdAL2Ek-134">
          <mxGeometry width="50" height="50" relative="1" as="geometry">
            <mxPoint x="100" y="113" as="sourcePoint" />
            <mxPoint x="130" y="113" as="targetPoint" />
          </mxGeometry>
        </mxCell>
        <mxCell id="ajYVIgqOjoC30KdAL2Ek-103" value="" style="endArrow=none;html=1;rounded=0;fillColor=#f8cecc;strokeColor=#D3A9A9;" edge="1" parent="ajYVIgqOjoC30KdAL2Ek-134">
          <mxGeometry width="50" height="50" relative="1" as="geometry">
            <mxPoint x="70" y="113" as="sourcePoint" />
            <mxPoint x="100" y="113" as="targetPoint" />
          </mxGeometry>
        </mxCell>
        <mxCell id="ajYVIgqOjoC30KdAL2Ek-105" value="" style="endArrow=none;html=1;rounded=0;entryX=0.25;entryY=1;entryDx=0;entryDy=0;fillColor=#f8cecc;strokeColor=#D3A9A9;" edge="1" parent="ajYVIgqOjoC30KdAL2Ek-134" target="ajYVIgqOjoC30KdAL2Ek-99">
          <mxGeometry width="50" height="50" relative="1" as="geometry">
            <mxPoint x="70" y="113" as="sourcePoint" />
            <mxPoint x="140" y="13" as="targetPoint" />
          </mxGeometry>
        </mxCell>
        <mxCell id="ajYVIgqOjoC30KdAL2Ek-107" value="" style="endArrow=none;html=1;rounded=0;entryX=0.75;entryY=1;entryDx=0;entryDy=0;fillColor=#f8cecc;strokeColor=#D3A9A9;" edge="1" parent="ajYVIgqOjoC30KdAL2Ek-134" target="ajYVIgqOjoC30KdAL2Ek-99">
          <mxGeometry width="50" height="50" relative="1" as="geometry">
            <mxPoint x="130" y="113" as="sourcePoint" />
            <mxPoint x="130" y="110" as="targetPoint" />
          </mxGeometry>
        </mxCell>
        <mxCell id="ajYVIgqOjoC30KdAL2Ek-110" value="" style="endArrow=none;html=1;rounded=0;exitX=0.01;exitY=0.628;exitDx=0;exitDy=0;exitPerimeter=0;strokeColor=#D3A9A9;" edge="1" parent="ajYVIgqOjoC30KdAL2Ek-134">
          <mxGeometry width="50" height="50" relative="1" as="geometry">
            <mxPoint x="2" y="73.36000000000001" as="sourcePoint" />
            <mxPoint y="73" as="targetPoint" />
            <Array as="points">
              <mxPoint x="100" y="73" />
            </Array>
          </mxGeometry>
        </mxCell>
        <mxCell id="ajYVIgqOjoC30KdAL2Ek-113" value="" style="endArrow=none;html=1;rounded=0;strokeColor=#D3A9A9;" edge="1" parent="ajYVIgqOjoC30KdAL2Ek-134">
          <mxGeometry width="50" height="50" relative="1" as="geometry">
            <mxPoint x="70" y="73" as="sourcePoint" />
            <mxPoint x="70" y="70" as="targetPoint" />
          </mxGeometry>
        </mxCell>
        <mxCell id="ajYVIgqOjoC30KdAL2Ek-114" value="" style="endArrow=none;html=1;rounded=0;strokeColor=#D3A9A9;" edge="1" parent="ajYVIgqOjoC30KdAL2Ek-134">
          <mxGeometry width="50" height="50" relative="1" as="geometry">
            <mxPoint x="100" y="73" as="sourcePoint" />
            <mxPoint x="100" y="70" as="targetPoint" />
          </mxGeometry>
        </mxCell>
        <mxCell id="ajYVIgqOjoC30KdAL2Ek-115" value="" style="endArrow=none;html=1;rounded=0;fillColor=#f8cecc;strokeColor=#D3A9A9;" edge="1" parent="ajYVIgqOjoC30KdAL2Ek-134">
          <mxGeometry width="50" height="50" relative="1" as="geometry">
            <mxPoint x="100" y="84" as="sourcePoint" />
            <mxPoint x="100" y="76" as="targetPoint" />
          </mxGeometry>
        </mxCell>
        <mxCell id="ajYVIgqOjoC30KdAL2Ek-117" value="" style="endArrow=none;html=1;rounded=0;strokeColor=#D3A9A9;" edge="1" parent="ajYVIgqOjoC30KdAL2Ek-134">
          <mxGeometry width="50" height="50" relative="1" as="geometry">
            <mxPoint x="100" y="76" as="sourcePoint" />
            <mxPoint x="125" y="76" as="targetPoint" />
          </mxGeometry>
        </mxCell>
        <mxCell id="ajYVIgqOjoC30KdAL2Ek-118" value="" style="endArrow=none;html=1;rounded=0;fillColor=#f8cecc;strokeColor=#D3A9A9;" edge="1" parent="ajYVIgqOjoC30KdAL2Ek-134">
          <mxGeometry width="50" height="50" relative="1" as="geometry">
            <mxPoint x="125" y="76" as="sourcePoint" />
            <mxPoint x="125" y="70" as="targetPoint" />
          </mxGeometry>
        </mxCell>
        <mxCell id="ajYVIgqOjoC30KdAL2Ek-119" value="" style="endArrow=none;html=1;rounded=0;exitX=0.5;exitY=0;exitDx=0;exitDy=0;entryX=0.5;entryY=1;entryDx=0;entryDy=0;strokeColor=#D3A9A9;" edge="1" parent="ajYVIgqOjoC30KdAL2Ek-134" source="ajYVIgqOjoC30KdAL2Ek-98" target="ajYVIgqOjoC30KdAL2Ek-97">
          <mxGeometry width="50" height="50" relative="1" as="geometry">
            <mxPoint x="150" y="90" as="sourcePoint" />
            <mxPoint x="100" y="40" as="targetPoint" />
          </mxGeometry>
        </mxCell>
        <mxCell id="ajYVIgqOjoC30KdAL2Ek-121" value="" style="endArrow=none;html=1;rounded=0;exitX=0.5;exitY=0;exitDx=0;exitDy=0;entryX=0.5;entryY=0;entryDx=0;entryDy=0;strokeColor=#D3A9A9;" edge="1" parent="ajYVIgqOjoC30KdAL2Ek-134" source="ajYVIgqOjoC30KdAL2Ek-97" target="ajYVIgqOjoC30KdAL2Ek-96">
          <mxGeometry width="50" height="50" relative="1" as="geometry">
            <mxPoint x="150" as="sourcePoint" />
            <mxPoint x="200" y="-50" as="targetPoint" />
          </mxGeometry>
        </mxCell>
        <mxCell id="ajYVIgqOjoC30KdAL2Ek-123" value="" style="endArrow=none;html=1;rounded=0;strokeColor=#D3A9A9;" edge="1" parent="ajYVIgqOjoC30KdAL2Ek-134">
          <mxGeometry width="50" height="50" relative="1" as="geometry">
            <mxPoint x="100" y="117" as="sourcePoint" />
            <mxPoint x="170" y="117" as="targetPoint" />
          </mxGeometry>
        </mxCell>
        <mxCell id="ajYVIgqOjoC30KdAL2Ek-124" value="" style="endArrow=none;html=1;rounded=0;strokeColor=#D3A9A9;" edge="1" parent="ajYVIgqOjoC30KdAL2Ek-134">
          <mxGeometry width="50" height="50" relative="1" as="geometry">
            <mxPoint x="170" y="117" as="sourcePoint" />
            <mxPoint x="170" y="80" as="targetPoint" />
          </mxGeometry>
        </mxCell>
        <mxCell id="ajYVIgqOjoC30KdAL2Ek-125" value="" style="endArrow=none;html=1;rounded=0;strokeColor=#D3A9A9;" edge="1" parent="ajYVIgqOjoC30KdAL2Ek-134">
          <mxGeometry width="50" height="50" relative="1" as="geometry">
            <mxPoint x="170" y="80" as="sourcePoint" />
            <mxPoint x="100" y="80" as="targetPoint" />
          </mxGeometry>
        </mxCell>
        <mxCell id="ajYVIgqOjoC30KdAL2Ek-126" value="" style="endArrow=none;html=1;rounded=0;strokeColor=#D3A9A9;fillColor=#f8cecc;" edge="1" parent="ajYVIgqOjoC30KdAL2Ek-134">
          <mxGeometry width="50" height="50" relative="1" as="geometry">
            <mxPoint x="125" y="76" as="sourcePoint" />
            <mxPoint x="170" y="76" as="targetPoint" />
          </mxGeometry>
        </mxCell>
        <mxCell id="ajYVIgqOjoC30KdAL2Ek-127" value="" style="endArrow=none;html=1;rounded=0;strokeColor=#D3A9A9;" edge="1" parent="ajYVIgqOjoC30KdAL2Ek-134">
          <mxGeometry width="50" height="50" relative="1" as="geometry">
            <mxPoint x="170" y="76" as="sourcePoint" />
            <mxPoint x="170" y="45" as="targetPoint" />
          </mxGeometry>
        </mxCell>
        <mxCell id="ajYVIgqOjoC30KdAL2Ek-128" value="" style="endArrow=none;html=1;rounded=0;strokeColor=#D3A9A9;" edge="1" parent="ajYVIgqOjoC30KdAL2Ek-134">
          <mxGeometry width="50" height="50" relative="1" as="geometry">
            <mxPoint x="170" y="45" as="sourcePoint" />
            <mxPoint x="100" y="45" as="targetPoint" />
          </mxGeometry>
        </mxCell>
        <mxCell id="ajYVIgqOjoC30KdAL2Ek-129" value="" style="endArrow=none;html=1;rounded=0;strokeColor=#D3A9A9;" edge="1" parent="ajYVIgqOjoC30KdAL2Ek-134">
          <mxGeometry width="50" height="50" relative="1" as="geometry">
            <mxPoint x="100" y="40" as="sourcePoint" />
            <mxPoint x="170" y="40" as="targetPoint" />
          </mxGeometry>
        </mxCell>
        <mxCell id="ajYVIgqOjoC30KdAL2Ek-131" value="" style="endArrow=none;html=1;rounded=0;strokeColor=#D3A9A9;" edge="1" parent="ajYVIgqOjoC30KdAL2Ek-134">
          <mxGeometry width="50" height="50" relative="1" as="geometry">
            <mxPoint x="170" y="40" as="sourcePoint" />
            <mxPoint x="170" y="10" as="targetPoint" />
          </mxGeometry>
        </mxCell>
        <mxCell id="ajYVIgqOjoC30KdAL2Ek-133" value="" style="endArrow=none;html=1;rounded=0;strokeColor=#D3A9A9;" edge="1" parent="ajYVIgqOjoC30KdAL2Ek-134">
          <mxGeometry width="50" height="50" relative="1" as="geometry">
            <mxPoint x="170" y="10" as="sourcePoint" />
            <mxPoint x="100" y="10" as="targetPoint" />
          </mxGeometry>
        </mxCell>
        <mxCell id="ajYVIgqOjoC30KdAL2Ek-135" value="" style="group" vertex="1" connectable="0" parent="1">
          <mxGeometry x="440" y="360" width="200" height="120" as="geometry" />
        </mxCell>
        <mxCell id="ajYVIgqOjoC30KdAL2Ek-136" value="" style="rounded=1;whiteSpace=wrap;html=1;fillColor=light-dark(#F8CECC,#FFD7D4);strokeColor=#b85450;" vertex="1" parent="ajYVIgqOjoC30KdAL2Ek-135">
          <mxGeometry width="200" height="120" as="geometry" />
        </mxCell>
        <mxCell id="ajYVIgqOjoC30KdAL2Ek-137" value="&lt;b&gt;多层感知机&lt;/b&gt;" style="rounded=0;whiteSpace=wrap;html=1;fillColor=#F19C99;strokeColor=#b85450;shadow=0;" vertex="1" parent="ajYVIgqOjoC30KdAL2Ek-135">
          <mxGeometry x="40" y="15" width="120" height="20" as="geometry" />
        </mxCell>
        <mxCell id="ajYVIgqOjoC30KdAL2Ek-138" value="&lt;b&gt;交叉注意力层&lt;span style=&quot;color: rgba(0, 0, 0, 0); font-family: monospace; font-size: 0px; text-align: start; text-wrap: nowrap;&quot;&gt;%3CmxGraphModel%3E%3Croot%3E%3CmxCell%20id%3D%220%22%2F%3E%3CmxCell%20id%3D%221%22%20parent%3D%220%22%2F%3E%3CmxCell%20id%3D%222%22%20value%3D%22%E5%A4%9A%E5%B1%82%E6%84%9F%E7%9F%A5%E6%9C%BA%22%20style%3D%22rounded%3D0%3BwhiteSpace%3Dwrap%3Bhtml%3D1%3B%22%20vertex%3D%221%22%20parent%3D%221%22%3E%3CmxGeometry%20x%3D%22470%22%20y%3D%22248%22%20width%3D%22120%22%20height%3D%2220%22%20as%3D%22geometry%22%2F%3E%3C%2FmxCell%3E%3C%2Froot%3E%3C%2FmxGraphModel%3E&lt;/span&gt;&lt;/b&gt;" style="rounded=0;whiteSpace=wrap;html=1;fillColor=#F19C99;strokeColor=#b85450;" vertex="1" parent="ajYVIgqOjoC30KdAL2Ek-135">
          <mxGeometry x="40" y="50" width="120" height="20" as="geometry" />
        </mxCell>
        <mxCell id="ajYVIgqOjoC30KdAL2Ek-139" value="&lt;b&gt;自注意力层&lt;/b&gt;" style="rounded=0;whiteSpace=wrap;html=1;fillColor=#F19C99;strokeColor=#b85450;" vertex="1" parent="ajYVIgqOjoC30KdAL2Ek-135">
          <mxGeometry x="40" y="84" width="120" height="20" as="geometry" />
        </mxCell>
        <mxCell id="ajYVIgqOjoC30KdAL2Ek-140" value="" style="endArrow=none;html=1;rounded=0;entryX=0.5;entryY=1;entryDx=0;entryDy=0;exitX=0.5;exitY=1;exitDx=0;exitDy=0;fillColor=#EA6B66;strokeColor=#D3A9A9;" edge="1" parent="ajYVIgqOjoC30KdAL2Ek-135" source="ajYVIgqOjoC30KdAL2Ek-139" target="ajYVIgqOjoC30KdAL2Ek-136">
          <mxGeometry width="50" height="50" relative="1" as="geometry">
            <mxPoint x="-40" y="190" as="sourcePoint" />
            <mxPoint x="10" y="140" as="targetPoint" />
          </mxGeometry>
        </mxCell>
        <mxCell id="ajYVIgqOjoC30KdAL2Ek-141" value="" style="endArrow=none;html=1;rounded=0;fillColor=#f8cecc;strokeColor=#D3A9A9;" edge="1" parent="ajYVIgqOjoC30KdAL2Ek-135">
          <mxGeometry width="50" height="50" relative="1" as="geometry">
            <mxPoint x="100" y="113" as="sourcePoint" />
            <mxPoint x="130" y="113" as="targetPoint" />
          </mxGeometry>
        </mxCell>
        <mxCell id="ajYVIgqOjoC30KdAL2Ek-142" value="" style="endArrow=none;html=1;rounded=0;fillColor=#f8cecc;strokeColor=#D3A9A9;" edge="1" parent="ajYVIgqOjoC30KdAL2Ek-135">
          <mxGeometry width="50" height="50" relative="1" as="geometry">
            <mxPoint x="70" y="113" as="sourcePoint" />
            <mxPoint x="100" y="113" as="targetPoint" />
          </mxGeometry>
        </mxCell>
        <mxCell id="ajYVIgqOjoC30KdAL2Ek-143" value="" style="endArrow=none;html=1;rounded=0;entryX=0.25;entryY=1;entryDx=0;entryDy=0;fillColor=#f8cecc;strokeColor=#D3A9A9;" edge="1" parent="ajYVIgqOjoC30KdAL2Ek-135" target="ajYVIgqOjoC30KdAL2Ek-139">
          <mxGeometry width="50" height="50" relative="1" as="geometry">
            <mxPoint x="70" y="113" as="sourcePoint" />
            <mxPoint x="140" y="13" as="targetPoint" />
          </mxGeometry>
        </mxCell>
        <mxCell id="ajYVIgqOjoC30KdAL2Ek-144" value="" style="endArrow=none;html=1;rounded=0;entryX=0.75;entryY=1;entryDx=0;entryDy=0;fillColor=#f8cecc;strokeColor=#D3A9A9;" edge="1" parent="ajYVIgqOjoC30KdAL2Ek-135" target="ajYVIgqOjoC30KdAL2Ek-139">
          <mxGeometry width="50" height="50" relative="1" as="geometry">
            <mxPoint x="130" y="113" as="sourcePoint" />
            <mxPoint x="130" y="110" as="targetPoint" />
          </mxGeometry>
        </mxCell>
        <mxCell id="ajYVIgqOjoC30KdAL2Ek-145" value="" style="endArrow=none;html=1;rounded=0;exitX=0.01;exitY=0.628;exitDx=0;exitDy=0;exitPerimeter=0;strokeColor=#D3A9A9;" edge="1" parent="ajYVIgqOjoC30KdAL2Ek-135">
          <mxGeometry width="50" height="50" relative="1" as="geometry">
            <mxPoint x="2" y="73.36000000000001" as="sourcePoint" />
            <mxPoint y="73" as="targetPoint" />
            <Array as="points">
              <mxPoint x="100" y="73" />
            </Array>
          </mxGeometry>
        </mxCell>
        <mxCell id="ajYVIgqOjoC30KdAL2Ek-146" value="" style="endArrow=none;html=1;rounded=0;strokeColor=#D3A9A9;" edge="1" parent="ajYVIgqOjoC30KdAL2Ek-135">
          <mxGeometry width="50" height="50" relative="1" as="geometry">
            <mxPoint x="70" y="73" as="sourcePoint" />
            <mxPoint x="70" y="70" as="targetPoint" />
          </mxGeometry>
        </mxCell>
        <mxCell id="ajYVIgqOjoC30KdAL2Ek-147" value="" style="endArrow=none;html=1;rounded=0;strokeColor=#D3A9A9;" edge="1" parent="ajYVIgqOjoC30KdAL2Ek-135">
          <mxGeometry width="50" height="50" relative="1" as="geometry">
            <mxPoint x="100" y="73" as="sourcePoint" />
            <mxPoint x="100" y="70" as="targetPoint" />
          </mxGeometry>
        </mxCell>
        <mxCell id="ajYVIgqOjoC30KdAL2Ek-148" value="" style="endArrow=none;html=1;rounded=0;fillColor=#f8cecc;strokeColor=#D3A9A9;" edge="1" parent="ajYVIgqOjoC30KdAL2Ek-135">
          <mxGeometry width="50" height="50" relative="1" as="geometry">
            <mxPoint x="100" y="84" as="sourcePoint" />
            <mxPoint x="100" y="76" as="targetPoint" />
          </mxGeometry>
        </mxCell>
        <mxCell id="ajYVIgqOjoC30KdAL2Ek-149" value="" style="endArrow=none;html=1;rounded=0;strokeColor=#D3A9A9;" edge="1" parent="ajYVIgqOjoC30KdAL2Ek-135">
          <mxGeometry width="50" height="50" relative="1" as="geometry">
            <mxPoint x="100" y="76" as="sourcePoint" />
            <mxPoint x="125" y="76" as="targetPoint" />
          </mxGeometry>
        </mxCell>
        <mxCell id="ajYVIgqOjoC30KdAL2Ek-150" value="" style="endArrow=none;html=1;rounded=0;fillColor=#f8cecc;strokeColor=#D3A9A9;" edge="1" parent="ajYVIgqOjoC30KdAL2Ek-135">
          <mxGeometry width="50" height="50" relative="1" as="geometry">
            <mxPoint x="125" y="76" as="sourcePoint" />
            <mxPoint x="125" y="70" as="targetPoint" />
          </mxGeometry>
        </mxCell>
        <mxCell id="ajYVIgqOjoC30KdAL2Ek-151" value="" style="endArrow=none;html=1;rounded=0;exitX=0.5;exitY=0;exitDx=0;exitDy=0;entryX=0.5;entryY=1;entryDx=0;entryDy=0;strokeColor=#D3A9A9;" edge="1" parent="ajYVIgqOjoC30KdAL2Ek-135" source="ajYVIgqOjoC30KdAL2Ek-138" target="ajYVIgqOjoC30KdAL2Ek-137">
          <mxGeometry width="50" height="50" relative="1" as="geometry">
            <mxPoint x="150" y="90" as="sourcePoint" />
            <mxPoint x="100" y="40" as="targetPoint" />
          </mxGeometry>
        </mxCell>
        <mxCell id="ajYVIgqOjoC30KdAL2Ek-152" value="" style="endArrow=none;html=1;rounded=0;exitX=0.5;exitY=0;exitDx=0;exitDy=0;entryX=0.5;entryY=0;entryDx=0;entryDy=0;strokeColor=#D3A9A9;" edge="1" parent="ajYVIgqOjoC30KdAL2Ek-135" source="ajYVIgqOjoC30KdAL2Ek-137" target="ajYVIgqOjoC30KdAL2Ek-136">
          <mxGeometry width="50" height="50" relative="1" as="geometry">
            <mxPoint x="150" as="sourcePoint" />
            <mxPoint x="200" y="-50" as="targetPoint" />
          </mxGeometry>
        </mxCell>
        <mxCell id="ajYVIgqOjoC30KdAL2Ek-153" value="" style="endArrow=none;html=1;rounded=0;strokeColor=#D3A9A9;" edge="1" parent="ajYVIgqOjoC30KdAL2Ek-135">
          <mxGeometry width="50" height="50" relative="1" as="geometry">
            <mxPoint x="100" y="117" as="sourcePoint" />
            <mxPoint x="170" y="117" as="targetPoint" />
          </mxGeometry>
        </mxCell>
        <mxCell id="ajYVIgqOjoC30KdAL2Ek-154" value="" style="endArrow=none;html=1;rounded=0;strokeColor=#D3A9A9;" edge="1" parent="ajYVIgqOjoC30KdAL2Ek-135">
          <mxGeometry width="50" height="50" relative="1" as="geometry">
            <mxPoint x="170" y="117" as="sourcePoint" />
            <mxPoint x="170" y="80" as="targetPoint" />
          </mxGeometry>
        </mxCell>
        <mxCell id="ajYVIgqOjoC30KdAL2Ek-155" value="" style="endArrow=none;html=1;rounded=0;strokeColor=#D3A9A9;" edge="1" parent="ajYVIgqOjoC30KdAL2Ek-135">
          <mxGeometry width="50" height="50" relative="1" as="geometry">
            <mxPoint x="170" y="80" as="sourcePoint" />
            <mxPoint x="100" y="80" as="targetPoint" />
          </mxGeometry>
        </mxCell>
        <mxCell id="ajYVIgqOjoC30KdAL2Ek-156" value="" style="endArrow=none;html=1;rounded=0;strokeColor=#D3A9A9;fillColor=#f8cecc;" edge="1" parent="ajYVIgqOjoC30KdAL2Ek-135">
          <mxGeometry width="50" height="50" relative="1" as="geometry">
            <mxPoint x="125" y="76" as="sourcePoint" />
            <mxPoint x="170" y="76" as="targetPoint" />
          </mxGeometry>
        </mxCell>
        <mxCell id="ajYVIgqOjoC30KdAL2Ek-157" value="" style="endArrow=none;html=1;rounded=0;strokeColor=#D3A9A9;" edge="1" parent="ajYVIgqOjoC30KdAL2Ek-135">
          <mxGeometry width="50" height="50" relative="1" as="geometry">
            <mxPoint x="170" y="76" as="sourcePoint" />
            <mxPoint x="170" y="45" as="targetPoint" />
          </mxGeometry>
        </mxCell>
        <mxCell id="ajYVIgqOjoC30KdAL2Ek-158" value="" style="endArrow=none;html=1;rounded=0;strokeColor=#D3A9A9;" edge="1" parent="ajYVIgqOjoC30KdAL2Ek-135">
          <mxGeometry width="50" height="50" relative="1" as="geometry">
            <mxPoint x="170" y="45" as="sourcePoint" />
            <mxPoint x="100" y="45" as="targetPoint" />
          </mxGeometry>
        </mxCell>
        <mxCell id="ajYVIgqOjoC30KdAL2Ek-159" value="" style="endArrow=none;html=1;rounded=0;strokeColor=#D3A9A9;" edge="1" parent="ajYVIgqOjoC30KdAL2Ek-135">
          <mxGeometry width="50" height="50" relative="1" as="geometry">
            <mxPoint x="100" y="40" as="sourcePoint" />
            <mxPoint x="170" y="40" as="targetPoint" />
          </mxGeometry>
        </mxCell>
        <mxCell id="ajYVIgqOjoC30KdAL2Ek-160" value="" style="endArrow=none;html=1;rounded=0;strokeColor=#D3A9A9;" edge="1" parent="ajYVIgqOjoC30KdAL2Ek-135">
          <mxGeometry width="50" height="50" relative="1" as="geometry">
            <mxPoint x="170" y="40" as="sourcePoint" />
            <mxPoint x="170" y="10" as="targetPoint" />
          </mxGeometry>
        </mxCell>
        <mxCell id="ajYVIgqOjoC30KdAL2Ek-161" value="" style="endArrow=none;html=1;rounded=0;strokeColor=#D3A9A9;" edge="1" parent="ajYVIgqOjoC30KdAL2Ek-135">
          <mxGeometry width="50" height="50" relative="1" as="geometry">
            <mxPoint x="170" y="10" as="sourcePoint" />
            <mxPoint x="100" y="10" as="targetPoint" />
          </mxGeometry>
        </mxCell>
        <mxCell id="ajYVIgqOjoC30KdAL2Ek-162" value="" style="group" vertex="1" connectable="0" parent="1">
          <mxGeometry x="440" y="60" width="200" height="120" as="geometry" />
        </mxCell>
        <mxCell id="ajYVIgqOjoC30KdAL2Ek-163" value="" style="rounded=1;whiteSpace=wrap;html=1;fillColor=light-dark(#F8CECC,#FFD7D4);strokeColor=#b85450;" vertex="1" parent="ajYVIgqOjoC30KdAL2Ek-162">
          <mxGeometry width="200" height="120" as="geometry" />
        </mxCell>
        <mxCell id="ajYVIgqOjoC30KdAL2Ek-164" value="&lt;b&gt;多层感知机&lt;/b&gt;" style="rounded=0;whiteSpace=wrap;html=1;fillColor=#F19C99;strokeColor=#b85450;shadow=0;" vertex="1" parent="ajYVIgqOjoC30KdAL2Ek-162">
          <mxGeometry x="40" y="15" width="120" height="20" as="geometry" />
        </mxCell>
        <mxCell id="ajYVIgqOjoC30KdAL2Ek-165" value="&lt;b&gt;交叉注意力层&lt;span style=&quot;color: rgba(0, 0, 0, 0); font-family: monospace; font-size: 0px; text-align: start; text-wrap: nowrap;&quot;&gt;%3CmxGraphModel%3E%3Croot%3E%3CmxCell%20id%3D%220%22%2F%3E%3CmxCell%20id%3D%221%22%20parent%3D%220%22%2F%3E%3CmxCell%20id%3D%222%22%20value%3D%22%E5%A4%9A%E5%B1%82%E6%84%9F%E7%9F%A5%E6%9C%BA%22%20style%3D%22rounded%3D0%3BwhiteSpace%3Dwrap%3Bhtml%3D1%3B%22%20vertex%3D%221%22%20parent%3D%221%22%3E%3CmxGeometry%20x%3D%22470%22%20y%3D%22248%22%20width%3D%22120%22%20height%3D%2220%22%20as%3D%22geometry%22%2F%3E%3C%2FmxCell%3E%3C%2Froot%3E%3C%2FmxGraphModel%3E&lt;/span&gt;&lt;/b&gt;" style="rounded=0;whiteSpace=wrap;html=1;fillColor=#F19C99;strokeColor=#b85450;" vertex="1" parent="ajYVIgqOjoC30KdAL2Ek-162">
          <mxGeometry x="40" y="50" width="120" height="20" as="geometry" />
        </mxCell>
        <mxCell id="ajYVIgqOjoC30KdAL2Ek-166" value="&lt;b&gt;自注意力层&lt;/b&gt;" style="rounded=0;whiteSpace=wrap;html=1;fillColor=#F19C99;strokeColor=#b85450;" vertex="1" parent="ajYVIgqOjoC30KdAL2Ek-162">
          <mxGeometry x="40" y="84" width="120" height="20" as="geometry" />
        </mxCell>
        <mxCell id="ajYVIgqOjoC30KdAL2Ek-167" value="" style="endArrow=none;html=1;rounded=0;entryX=0.5;entryY=1;entryDx=0;entryDy=0;exitX=0.5;exitY=1;exitDx=0;exitDy=0;fillColor=#EA6B66;strokeColor=#D3A9A9;" edge="1" parent="ajYVIgqOjoC30KdAL2Ek-162" source="ajYVIgqOjoC30KdAL2Ek-166" target="ajYVIgqOjoC30KdAL2Ek-163">
          <mxGeometry width="50" height="50" relative="1" as="geometry">
            <mxPoint x="-40" y="190" as="sourcePoint" />
            <mxPoint x="10" y="140" as="targetPoint" />
          </mxGeometry>
        </mxCell>
        <mxCell id="ajYVIgqOjoC30KdAL2Ek-168" value="" style="endArrow=none;html=1;rounded=0;fillColor=#f8cecc;strokeColor=#D3A9A9;" edge="1" parent="ajYVIgqOjoC30KdAL2Ek-162">
          <mxGeometry width="50" height="50" relative="1" as="geometry">
            <mxPoint x="100" y="113" as="sourcePoint" />
            <mxPoint x="130" y="113" as="targetPoint" />
          </mxGeometry>
        </mxCell>
        <mxCell id="ajYVIgqOjoC30KdAL2Ek-169" value="" style="endArrow=none;html=1;rounded=0;fillColor=#f8cecc;strokeColor=#D3A9A9;" edge="1" parent="ajYVIgqOjoC30KdAL2Ek-162">
          <mxGeometry width="50" height="50" relative="1" as="geometry">
            <mxPoint x="70" y="113" as="sourcePoint" />
            <mxPoint x="100" y="113" as="targetPoint" />
          </mxGeometry>
        </mxCell>
        <mxCell id="ajYVIgqOjoC30KdAL2Ek-170" value="" style="endArrow=none;html=1;rounded=0;entryX=0.25;entryY=1;entryDx=0;entryDy=0;fillColor=#f8cecc;strokeColor=#D3A9A9;" edge="1" parent="ajYVIgqOjoC30KdAL2Ek-162" target="ajYVIgqOjoC30KdAL2Ek-166">
          <mxGeometry width="50" height="50" relative="1" as="geometry">
            <mxPoint x="70" y="113" as="sourcePoint" />
            <mxPoint x="140" y="13" as="targetPoint" />
          </mxGeometry>
        </mxCell>
        <mxCell id="ajYVIgqOjoC30KdAL2Ek-171" value="" style="endArrow=none;html=1;rounded=0;entryX=0.75;entryY=1;entryDx=0;entryDy=0;fillColor=#f8cecc;strokeColor=#D3A9A9;" edge="1" parent="ajYVIgqOjoC30KdAL2Ek-162" target="ajYVIgqOjoC30KdAL2Ek-166">
          <mxGeometry width="50" height="50" relative="1" as="geometry">
            <mxPoint x="130" y="113" as="sourcePoint" />
            <mxPoint x="130" y="110" as="targetPoint" />
          </mxGeometry>
        </mxCell>
        <mxCell id="ajYVIgqOjoC30KdAL2Ek-172" value="" style="endArrow=none;html=1;rounded=0;exitX=0.01;exitY=0.628;exitDx=0;exitDy=0;exitPerimeter=0;strokeColor=#D3A9A9;" edge="1" parent="ajYVIgqOjoC30KdAL2Ek-162">
          <mxGeometry width="50" height="50" relative="1" as="geometry">
            <mxPoint x="2" y="73.36000000000001" as="sourcePoint" />
            <mxPoint y="73" as="targetPoint" />
            <Array as="points">
              <mxPoint x="100" y="73" />
            </Array>
          </mxGeometry>
        </mxCell>
        <mxCell id="ajYVIgqOjoC30KdAL2Ek-173" value="" style="endArrow=none;html=1;rounded=0;strokeColor=#D3A9A9;" edge="1" parent="ajYVIgqOjoC30KdAL2Ek-162">
          <mxGeometry width="50" height="50" relative="1" as="geometry">
            <mxPoint x="70" y="73" as="sourcePoint" />
            <mxPoint x="70" y="70" as="targetPoint" />
          </mxGeometry>
        </mxCell>
        <mxCell id="ajYVIgqOjoC30KdAL2Ek-174" value="" style="endArrow=none;html=1;rounded=0;strokeColor=#D3A9A9;" edge="1" parent="ajYVIgqOjoC30KdAL2Ek-162">
          <mxGeometry width="50" height="50" relative="1" as="geometry">
            <mxPoint x="100" y="73" as="sourcePoint" />
            <mxPoint x="100" y="70" as="targetPoint" />
          </mxGeometry>
        </mxCell>
        <mxCell id="ajYVIgqOjoC30KdAL2Ek-175" value="" style="endArrow=none;html=1;rounded=0;fillColor=#f8cecc;strokeColor=#D3A9A9;" edge="1" parent="ajYVIgqOjoC30KdAL2Ek-162">
          <mxGeometry width="50" height="50" relative="1" as="geometry">
            <mxPoint x="100" y="84" as="sourcePoint" />
            <mxPoint x="100" y="76" as="targetPoint" />
          </mxGeometry>
        </mxCell>
        <mxCell id="ajYVIgqOjoC30KdAL2Ek-176" value="" style="endArrow=none;html=1;rounded=0;strokeColor=#D3A9A9;" edge="1" parent="ajYVIgqOjoC30KdAL2Ek-162">
          <mxGeometry width="50" height="50" relative="1" as="geometry">
            <mxPoint x="100" y="76" as="sourcePoint" />
            <mxPoint x="125" y="76" as="targetPoint" />
          </mxGeometry>
        </mxCell>
        <mxCell id="ajYVIgqOjoC30KdAL2Ek-177" value="" style="endArrow=none;html=1;rounded=0;fillColor=#f8cecc;strokeColor=#D3A9A9;" edge="1" parent="ajYVIgqOjoC30KdAL2Ek-162">
          <mxGeometry width="50" height="50" relative="1" as="geometry">
            <mxPoint x="125" y="76" as="sourcePoint" />
            <mxPoint x="125" y="70" as="targetPoint" />
          </mxGeometry>
        </mxCell>
        <mxCell id="ajYVIgqOjoC30KdAL2Ek-178" value="" style="endArrow=none;html=1;rounded=0;exitX=0.5;exitY=0;exitDx=0;exitDy=0;entryX=0.5;entryY=1;entryDx=0;entryDy=0;strokeColor=#D3A9A9;" edge="1" parent="ajYVIgqOjoC30KdAL2Ek-162" source="ajYVIgqOjoC30KdAL2Ek-165" target="ajYVIgqOjoC30KdAL2Ek-164">
          <mxGeometry width="50" height="50" relative="1" as="geometry">
            <mxPoint x="150" y="90" as="sourcePoint" />
            <mxPoint x="100" y="40" as="targetPoint" />
          </mxGeometry>
        </mxCell>
        <mxCell id="ajYVIgqOjoC30KdAL2Ek-179" value="" style="endArrow=none;html=1;rounded=0;exitX=0.5;exitY=0;exitDx=0;exitDy=0;entryX=0.5;entryY=0;entryDx=0;entryDy=0;strokeColor=#D3A9A9;" edge="1" parent="ajYVIgqOjoC30KdAL2Ek-162" source="ajYVIgqOjoC30KdAL2Ek-164" target="ajYVIgqOjoC30KdAL2Ek-163">
          <mxGeometry width="50" height="50" relative="1" as="geometry">
            <mxPoint x="150" as="sourcePoint" />
            <mxPoint x="200" y="-50" as="targetPoint" />
          </mxGeometry>
        </mxCell>
        <mxCell id="ajYVIgqOjoC30KdAL2Ek-180" value="" style="endArrow=none;html=1;rounded=0;strokeColor=#D3A9A9;" edge="1" parent="ajYVIgqOjoC30KdAL2Ek-162">
          <mxGeometry width="50" height="50" relative="1" as="geometry">
            <mxPoint x="100" y="117" as="sourcePoint" />
            <mxPoint x="170" y="117" as="targetPoint" />
          </mxGeometry>
        </mxCell>
        <mxCell id="ajYVIgqOjoC30KdAL2Ek-181" value="" style="endArrow=none;html=1;rounded=0;strokeColor=#D3A9A9;" edge="1" parent="ajYVIgqOjoC30KdAL2Ek-162">
          <mxGeometry width="50" height="50" relative="1" as="geometry">
            <mxPoint x="170" y="117" as="sourcePoint" />
            <mxPoint x="170" y="80" as="targetPoint" />
          </mxGeometry>
        </mxCell>
        <mxCell id="ajYVIgqOjoC30KdAL2Ek-182" value="" style="endArrow=none;html=1;rounded=0;strokeColor=#D3A9A9;" edge="1" parent="ajYVIgqOjoC30KdAL2Ek-162">
          <mxGeometry width="50" height="50" relative="1" as="geometry">
            <mxPoint x="170" y="80" as="sourcePoint" />
            <mxPoint x="100" y="80" as="targetPoint" />
          </mxGeometry>
        </mxCell>
        <mxCell id="ajYVIgqOjoC30KdAL2Ek-183" value="" style="endArrow=none;html=1;rounded=0;strokeColor=#D3A9A9;fillColor=#f8cecc;" edge="1" parent="ajYVIgqOjoC30KdAL2Ek-162">
          <mxGeometry width="50" height="50" relative="1" as="geometry">
            <mxPoint x="125" y="76" as="sourcePoint" />
            <mxPoint x="170" y="76" as="targetPoint" />
          </mxGeometry>
        </mxCell>
        <mxCell id="ajYVIgqOjoC30KdAL2Ek-184" value="" style="endArrow=none;html=1;rounded=0;strokeColor=#D3A9A9;" edge="1" parent="ajYVIgqOjoC30KdAL2Ek-162">
          <mxGeometry width="50" height="50" relative="1" as="geometry">
            <mxPoint x="170" y="76" as="sourcePoint" />
            <mxPoint x="170" y="45" as="targetPoint" />
          </mxGeometry>
        </mxCell>
        <mxCell id="ajYVIgqOjoC30KdAL2Ek-185" value="" style="endArrow=none;html=1;rounded=0;strokeColor=#D3A9A9;" edge="1" parent="ajYVIgqOjoC30KdAL2Ek-162">
          <mxGeometry width="50" height="50" relative="1" as="geometry">
            <mxPoint x="170" y="45" as="sourcePoint" />
            <mxPoint x="100" y="45" as="targetPoint" />
          </mxGeometry>
        </mxCell>
        <mxCell id="ajYVIgqOjoC30KdAL2Ek-186" value="" style="endArrow=none;html=1;rounded=0;strokeColor=#D3A9A9;" edge="1" parent="ajYVIgqOjoC30KdAL2Ek-162">
          <mxGeometry width="50" height="50" relative="1" as="geometry">
            <mxPoint x="100" y="40" as="sourcePoint" />
            <mxPoint x="170" y="40" as="targetPoint" />
          </mxGeometry>
        </mxCell>
        <mxCell id="ajYVIgqOjoC30KdAL2Ek-187" value="" style="endArrow=none;html=1;rounded=0;strokeColor=#D3A9A9;" edge="1" parent="ajYVIgqOjoC30KdAL2Ek-162">
          <mxGeometry width="50" height="50" relative="1" as="geometry">
            <mxPoint x="170" y="40" as="sourcePoint" />
            <mxPoint x="170" y="10" as="targetPoint" />
          </mxGeometry>
        </mxCell>
        <mxCell id="ajYVIgqOjoC30KdAL2Ek-188" value="" style="endArrow=none;html=1;rounded=0;strokeColor=#D3A9A9;" edge="1" parent="ajYVIgqOjoC30KdAL2Ek-162">
          <mxGeometry width="50" height="50" relative="1" as="geometry">
            <mxPoint x="170" y="10" as="sourcePoint" />
            <mxPoint x="100" y="10" as="targetPoint" />
          </mxGeometry>
        </mxCell>
        <mxCell id="ajYVIgqOjoC30KdAL2Ek-189" value="" style="endArrow=none;dashed=1;html=1;dashPattern=1 3;strokeWidth=2;rounded=0;" edge="1" parent="1">
          <mxGeometry width="50" height="50" relative="1" as="geometry">
            <mxPoint x="540" y="240" as="sourcePoint" />
            <mxPoint x="540" y="180" as="targetPoint" />
          </mxGeometry>
        </mxCell>
        <mxCell id="ajYVIgqOjoC30KdAL2Ek-190" value="" style="shape=orEllipse;perimeter=ellipsePerimeter;whiteSpace=wrap;html=1;backgroundOutline=1;" vertex="1" parent="1">
          <mxGeometry x="530" y="518" width="20" height="20" as="geometry" />
        </mxCell>
        <mxCell id="ajYVIgqOjoC30KdAL2Ek-191" value="" style="endArrow=classic;html=1;rounded=0;" edge="1" parent="1">
          <mxGeometry width="50" height="50" relative="1" as="geometry">
            <mxPoint x="540" y="520" as="sourcePoint" />
            <mxPoint x="540" y="480" as="targetPoint" />
          </mxGeometry>
        </mxCell>
        <mxCell id="ajYVIgqOjoC30KdAL2Ek-192" value="" style="endArrow=classic;html=1;rounded=0;entryX=0.5;entryY=1;entryDx=0;entryDy=0;" edge="1" parent="1" target="ajYVIgqOjoC30KdAL2Ek-190">
          <mxGeometry width="50" height="50" relative="1" as="geometry">
            <mxPoint x="540" y="580" as="sourcePoint" />
            <mxPoint x="590" y="630" as="targetPoint" />
          </mxGeometry>
        </mxCell>
        <mxCell id="ajYVIgqOjoC30KdAL2Ek-193" value="" style="endArrow=classic;html=1;rounded=0;entryX=1;entryY=0.5;entryDx=0;entryDy=0;" edge="1" parent="1" target="ajYVIgqOjoC30KdAL2Ek-190">
          <mxGeometry width="50" height="50" relative="1" as="geometry">
            <mxPoint x="680" y="528" as="sourcePoint" />
            <mxPoint x="590" y="400" as="targetPoint" />
          </mxGeometry>
        </mxCell>
        <mxCell id="ajYVIgqOjoC30KdAL2Ek-194" value="" style="shape=datastore;whiteSpace=wrap;html=1;" vertex="1" parent="1">
          <mxGeometry x="680" y="498" width="60" height="60" as="geometry" />
        </mxCell>
        <mxCell id="ajYVIgqOjoC30KdAL2Ek-195" value="&lt;font style=&quot;font-size: 15px;&quot;&gt;&lt;b&gt;可学习&lt;/b&gt;&lt;/font&gt;&lt;div&gt;&lt;font style=&quot;font-size: 15px;&quot;&gt;&lt;b&gt;位置编码&lt;/b&gt;&lt;/font&gt;&lt;/div&gt;" style="text;html=1;align=center;verticalAlign=middle;whiteSpace=wrap;rounded=0;" vertex="1" parent="1">
          <mxGeometry x="756" y="510" width="70" height="28" as="geometry" />
        </mxCell>
        <mxCell id="ajYVIgqOjoC30KdAL2Ek-216" value="" style="group" vertex="1" connectable="0" parent="1">
          <mxGeometry x="70" y="240" width="200" height="100" as="geometry" />
        </mxCell>
        <mxCell id="ajYVIgqOjoC30KdAL2Ek-199" value="" style="group" vertex="1" connectable="0" parent="ajYVIgqOjoC30KdAL2Ek-216">
          <mxGeometry width="200" height="100" as="geometry" />
        </mxCell>
        <mxCell id="ajYVIgqOjoC30KdAL2Ek-196" value="" style="rounded=1;whiteSpace=wrap;html=1;fillColor=#dae8fc;strokeColor=#6c8ebf;" vertex="1" parent="ajYVIgqOjoC30KdAL2Ek-199">
          <mxGeometry width="200" height="100" as="geometry" />
        </mxCell>
        <mxCell id="ajYVIgqOjoC30KdAL2Ek-197" value="&lt;b&gt;多层感知机&lt;/b&gt;" style="rounded=0;whiteSpace=wrap;html=1;fillColor=#A9C4EB;strokeColor=#6c8ebf;" vertex="1" parent="ajYVIgqOjoC30KdAL2Ek-199">
          <mxGeometry x="40" y="20" width="120" height="20" as="geometry" />
        </mxCell>
        <mxCell id="ajYVIgqOjoC30KdAL2Ek-198" value="&lt;b&gt;自注意力层&lt;/b&gt;" style="rounded=0;whiteSpace=wrap;html=1;fillColor=#A9C4EB;strokeColor=#6c8ebf;" vertex="1" parent="ajYVIgqOjoC30KdAL2Ek-199">
          <mxGeometry x="41" y="57" width="120" height="20" as="geometry" />
        </mxCell>
        <mxCell id="ajYVIgqOjoC30KdAL2Ek-202" value="" style="endArrow=none;html=1;rounded=0;exitX=0.5;exitY=1;exitDx=0;exitDy=0;strokeColor=#A9C4EB;" edge="1" parent="ajYVIgqOjoC30KdAL2Ek-199" source="ajYVIgqOjoC30KdAL2Ek-196">
          <mxGeometry width="50" height="50" relative="1" as="geometry">
            <mxPoint x="290" y="110" as="sourcePoint" />
            <mxPoint x="100" y="77" as="targetPoint" />
          </mxGeometry>
        </mxCell>
        <mxCell id="ajYVIgqOjoC30KdAL2Ek-215" value="" style="endArrow=none;html=1;rounded=0;exitX=0.5;exitY=0;exitDx=0;exitDy=0;entryX=0.5;entryY=0;entryDx=0;entryDy=0;strokeColor=#A9C4EB;" edge="1" parent="ajYVIgqOjoC30KdAL2Ek-199" source="ajYVIgqOjoC30KdAL2Ek-197" target="ajYVIgqOjoC30KdAL2Ek-196">
          <mxGeometry width="50" height="50" relative="1" as="geometry">
            <mxPoint x="190" y="10" as="sourcePoint" />
            <mxPoint x="240" y="-40" as="targetPoint" />
          </mxGeometry>
        </mxCell>
        <mxCell id="ajYVIgqOjoC30KdAL2Ek-203" value="" style="endArrow=none;html=1;rounded=0;exitX=0.322;exitY=0.991;exitDx=0;exitDy=0;exitPerimeter=0;entryX=0.685;entryY=0.972;entryDx=0;entryDy=0;entryPerimeter=0;fillColor=#dae8fc;strokeColor=#A9C4EB;" edge="1" parent="ajYVIgqOjoC30KdAL2Ek-216">
          <mxGeometry width="50" height="50" relative="1" as="geometry">
            <mxPoint x="64" y="85" as="sourcePoint" />
            <mxPoint x="137" y="85" as="targetPoint" />
          </mxGeometry>
        </mxCell>
        <mxCell id="ajYVIgqOjoC30KdAL2Ek-204" value="" style="endArrow=none;html=1;rounded=0;strokeColor=#A9C4EB;" edge="1" parent="ajYVIgqOjoC30KdAL2Ek-216">
          <mxGeometry width="50" height="50" relative="1" as="geometry">
            <mxPoint x="63" y="85" as="sourcePoint" />
            <mxPoint x="63" y="78" as="targetPoint" />
          </mxGeometry>
        </mxCell>
        <mxCell id="ajYVIgqOjoC30KdAL2Ek-205" value="" style="endArrow=none;html=1;rounded=0;strokeColor=#A9C4EB;" edge="1" parent="ajYVIgqOjoC30KdAL2Ek-216">
          <mxGeometry width="50" height="50" relative="1" as="geometry">
            <mxPoint x="137" y="85" as="sourcePoint" />
            <mxPoint x="137" y="78" as="targetPoint" />
          </mxGeometry>
        </mxCell>
        <mxCell id="ajYVIgqOjoC30KdAL2Ek-206" value="" style="endArrow=none;html=1;rounded=0;strokeColor=#A9C4EB;" edge="1" parent="ajYVIgqOjoC30KdAL2Ek-216">
          <mxGeometry width="50" height="50" relative="1" as="geometry">
            <mxPoint x="100" y="90" as="sourcePoint" />
            <mxPoint x="30" y="90" as="targetPoint" />
          </mxGeometry>
        </mxCell>
        <mxCell id="ajYVIgqOjoC30KdAL2Ek-207" value="" style="endArrow=none;html=1;rounded=0;fillColor=#dae8fc;strokeColor=#A9C4EB;" edge="1" parent="ajYVIgqOjoC30KdAL2Ek-216">
          <mxGeometry width="50" height="50" relative="1" as="geometry">
            <mxPoint x="30" y="90" as="sourcePoint" />
            <mxPoint x="30" y="50" as="targetPoint" />
          </mxGeometry>
        </mxCell>
        <mxCell id="ajYVIgqOjoC30KdAL2Ek-208" value="" style="endArrow=none;html=1;rounded=0;strokeColor=#A9C4EB;" edge="1" parent="ajYVIgqOjoC30KdAL2Ek-216">
          <mxGeometry width="50" height="50" relative="1" as="geometry">
            <mxPoint x="30" y="50" as="sourcePoint" />
            <mxPoint x="100" y="50" as="targetPoint" />
          </mxGeometry>
        </mxCell>
        <mxCell id="ajYVIgqOjoC30KdAL2Ek-210" value="" style="endArrow=none;html=1;rounded=0;exitX=0.5;exitY=0;exitDx=0;exitDy=0;fillColor=#dae8fc;strokeColor=#A9C4EB;" edge="1" parent="ajYVIgqOjoC30KdAL2Ek-216">
          <mxGeometry width="50" height="50" relative="1" as="geometry">
            <mxPoint x="100" y="57" as="sourcePoint" />
            <mxPoint x="100" y="40" as="targetPoint" />
          </mxGeometry>
        </mxCell>
        <mxCell id="ajYVIgqOjoC30KdAL2Ek-212" value="" style="endArrow=none;html=1;rounded=0;strokeColor=#A9C4EB;" edge="1" parent="ajYVIgqOjoC30KdAL2Ek-216">
          <mxGeometry width="50" height="50" relative="1" as="geometry">
            <mxPoint x="100" y="47" as="sourcePoint" />
            <mxPoint x="170" y="47" as="targetPoint" />
          </mxGeometry>
        </mxCell>
        <mxCell id="ajYVIgqOjoC30KdAL2Ek-213" value="" style="endArrow=none;html=1;rounded=0;strokeColor=#A9C4EB;" edge="1" parent="ajYVIgqOjoC30KdAL2Ek-216">
          <mxGeometry width="50" height="50" relative="1" as="geometry">
            <mxPoint x="170" y="47" as="sourcePoint" />
            <mxPoint x="170" y="10" as="targetPoint" />
          </mxGeometry>
        </mxCell>
        <mxCell id="ajYVIgqOjoC30KdAL2Ek-214" value="" style="endArrow=none;html=1;rounded=0;strokeColor=#A9C4EB;" edge="1" parent="ajYVIgqOjoC30KdAL2Ek-216">
          <mxGeometry width="50" height="50" relative="1" as="geometry">
            <mxPoint x="170" y="10" as="sourcePoint" />
            <mxPoint x="100" y="10" as="targetPoint" />
          </mxGeometry>
        </mxCell>
      </root>
    </mxGraphModel>
  </diagram>
</mxfile>
